<svg xmlns="http://www.w3.org/2000/svg" width="106.1" height="70.4" viewBox="0 0 106.1 70.4"><path d="M84.8 28.1C80.3 15.6 65.9 1.2 47.1 1.2c-7 0-13.6 1.6-19.2 4.4-.9.5-1.5-6.8-6.7-4.2.4 2.9.2 8.2-.9 9.2-3.5 2.9-6.3 6.3-8.3 10.2-1.1 2-3.2 3.3-5.6 3.3H4.8c-2.2 0-4 1.8-4 4v11.8c0 2.2 1.8 4 4 4h1.5c2.4 0 4.5 1.3 5.6 3.3 2.1 4 5.1 7.6 8.8 10.6l.1-.1c3.7 3.2 6.5 7.3 8.1 11.9h11.4v-3.3c0-3.7 3-6.8 6.8-6.8 3.7 0 6.8 3 6.8 6.8v3.3h11.4c1.6-4.6 4.4-8.7 8.1-11.9v.1c5.8-4.7 10.8-15.3 11.4-17.9s1.4-8.1 0-11.8z" fill="#fff"/><path d="M84.8 28.1C81.5 12.8 65.9 1.2 47.1 1.2c-7 0-13.6 1.6-19.2 4.4-.9.5-1.5-6.8-6.7-4.2.4 2.9.2 8.2-.9 9.2-3.5 2.9-6.3 6.3-8.3 10.2h0c-1.1 2-3.2 3.3-5.6 3.3H4.8c-2.2 0-4 1.8-4 4v11.8c0 2.2 1.8 4 4 4h1.5c2.4 0 4.5 1.3 5.6 3.3h0c1.9 3.8 4.7 7.1 8.1 10 .2.2.7.6.7.6s.5.3.7.5c3.4 3.1 6 7 7.5 11.3h11.4v-3.3c0-3.7 3-6.8 6.8-6.8 3.7 0 6.8 3 6.8 6.8v3.3h11.4c1.6-4.6 4.4-8.7 8.1-11.9v.1c5.8-4.7 9.9-10.9 11.4-17.9l3.7-.3c16-2.8 5.4-19.9-2.4-9.6-3.4 4.5 17.2 12.9 19.2-4.3" fill="none" stroke="#000" stroke-width="1.6" stroke-linecap="round" stroke-linejoin="round"/><path d="M36.2 12.6c3.5-1.1 7.2-1.7 10.9-1.7 3.9 0 7.7.6 11.3 1.8.6.2 1.7.4 2-.5.5-1.5-.5-2.8-2-3.3-3.6-1.2-7.4-1.8-11.3-1.8-3.8 0-7.5.6-10.9 1.7-1.6.5-3 2-2.1 3.3.5.7 1.5.6 2.1.5zM26.5 27c0 1.7-1.3 3-3 3s-3-1.3-3-3 1.3-3 3-3c1.7-.1 3 1.3 3 3z"/></svg>