<svg version="1.1" id="Layer_1" xmlns="http://www.w3.org/2000/svg" x="0" y="0" width="85.6" height="85.6" viewBox="0 0 85.6 85.6" xml:space="preserve"><style>.st1{fill:none;stroke:#000;stroke-width:1.6;stroke-linecap:round;stroke-linejoin:round}</style><circle cx="42.8" cy="42.8" r="41.8" fill="#fff"/><path class="st1" d="M6.8 42.2C6.5 56.5 14.6 68.9 26.5 75L10.1 27.6c-2 4.4-3.2 9.3-3.3 14.6zM25 22.3c1.9-.1 2.1 2.8.2 3 0 0-2 .2-4.1.3l12.3 39.2 8.3-23.5-5.3-15.5c-1.9-.1-3.8-.4-3.8-.4-1.9-.1-1.7-3.1.3-3 0 0 5.9.6 9.5.6 3.8.1 9.6-.3 9.6-.3 1.9-.1 2.1 2.8.2 3 0 0-2 .2-4.1.3l12.3 39 3.8-11.9c1.6-5 2.9-8.5 2.9-11.6.1-4.5-1.5-7.6-2.8-10-1.8-3-3.4-5.5-3.4-8.5.1-3.3 2.6-6.3 6.2-6.3h.5c-6.3-6-14.8-9.7-24.2-9.9-12.6-.2-23.8 6-30.4 15.7.8 0 1.6.1 2.3.1 3.8 0 9.7-.3 9.7-.3zM43.4 46L32 77.2c3.2 1 6.6 1.6 10.2 1.6 4.2.1 8.2-.6 12-1.8-.1-.2-.2-.3-.2-.5L43.4 46zm31.3-19.9c.1 1.2.2 2.4.2 3.7-.1 3.7-.8 7.8-3 12.9L60.3 74.3c10.8-6.1 18.2-17.5 18.5-30.8.1-6.3-1.4-12.2-4.1-17.4z"/><path class="st1" d="M43.5.8C20.3.4 1.2 18.9.8 42.1s18.1 42.3 41.3 42.7c23.2.4 42.3-18.1 42.7-41.3C85.2 20.4 66.7 1.2 43.5.8z"/></svg>