<svg version="1.1" id="Layer_1" xmlns="http://www.w3.org/2000/svg" x="0" y="0" width="108.6" height="75.8" viewBox="0 0 108.6 75.8" xml:space="preserve"><style>.st1{fill:none;stroke:#000;stroke-width:1.6;stroke-linecap:round;stroke-linejoin:round}</style><path d="M84.2 20.2c-.4 0-.7 0-1.1.1C81.5 9.3 72 .8 60.5.8c-8.4 0-15.8 4.6-19.7 11.3-2.5-1.9-5.6-3.1-8.9-3.1-8 0-14.5 6.5-14.5 14.5v.2C8.2 23.9.8 31.3.8 40.6c0 8.9 6.9 16.2 15.7 16.8 2.8 9.3 11.4 16 21.5 16 3.6 0 6.9-.9 9.9-2.3 3 2.4 6.8 3.9 10.9 3.9 6.8 0 12.6-3.9 15.4-9.5 3 1.4 6.4 2.2 9.9 2.2 13.1 0 23.7-10.6 23.7-23.7.1-13.2-10.5-23.8-23.6-23.8z" fill="#fff" stroke="#000" stroke-width="1.6" stroke-linecap="round" stroke-linejoin="round"/><path class="st1" d="M30.9 53.7H77c1.8 0 3.4-1.9 3.4-4.3v-21c0-2.4-1.5-4.3-3.4-4.3H30.9c-1.9 0-3.4 1.9-3.4 4.3v21c0 2.4 1.5 4.3 3.4 4.3z"/><path class="st1" d="M38.9 35.5c1.9 0 3.4 1.5 3.4 3.4s-1.5 3.4-3.4 3.4-3.4-1.5-3.4-3.4 1.5-3.4 3.4-3.4zM68.8 42.4H50.9c-1.3 0-2.4-1.1-2.4-2.4v-2.2c0-1.3 1.1-2.4 2.4-2.4h17.9c1.3 0 2.4 1.1 2.4 2.4V40c0 1.3-1.1 2.4-2.4 2.4zM68.2 35.6l-3 6.5M61.5 35.6l-3 6.5M54.9 35.6l-3.1 6.5"/></svg>