<svg version="1.1" id="Layer_1" xmlns="http://www.w3.org/2000/svg" x="0" y="0" width="162.1" height="120.4" viewBox="0 0 162.1 120.4" xml:space="preserve"><style>.st0{fill:#b3b3b3}.st3{fill:#4d4d4d}.st10{fill:#999}.st11,.st12{fill-rule:evenodd;clip-rule:evenodd;fill:#353f49}.st12{fill:#fff}</style><path class="st0" d="M92.6 116.4H46.1s7.4-2.2 7.4-21.6c0-6.4 31.9-6.4 31.9-.4 0 20.1 7.2 22 7.2 22z"/><path d="M94.6 119.5c0 .4-.4.9-.9.9H45.1c-.4 0-.4-.5-.4-.9v-2c0-.4 0-1.2.4-1.2h48.7c.4 0 .9.7.9 1.2l-.1 2z" fill="gray"/><path d="M137.7 93.7c0 2.5-1.4 5.8-3.9 5.8H4.8c-2.5 0-4.8-3.3-4.8-5.8v-12h137.7v12z" fill="#ccc"/><path class="st3" d="M137.7 3.7c0-2.5-1.4-3.7-3.9-3.7H4.8C2.3 0 0 1.2 0 3.7v78h137.7v-78z"/><path fill="#fff" d="M6.8 7.2h124v68.9H6.8z"/><path class="st3" d="M75 90.4c0 3.1-2.5 5.6-5.6 5.6-3.1 0-5.6-2.5-5.6-5.6 0-3.1 2.5-5.6 5.6-5.6 3-.1 5.6 2.5 5.6 5.6z"/><path class="st0" d="M6.8 7.2h124v5.2H6.8z"/><path d="M11 9.7c0 .7-.6 1.2-1.2 1.2-.7 0-1.2-.6-1.2-1.2 0-.7.6-1.2 1.2-1.2.7 0 1.2.5 1.2 1.2z" fill="#c1272d"/><path d="M14.9 9.7c0 .7-.6 1.2-1.2 1.2-.7 0-1.2-.6-1.2-1.2 0-.7.6-1.2 1.2-1.2.7 0 1.2.5 1.2 1.2z" fill="#fcee21"/><path d="M18.8 9.7c0 .7-.6 1.2-1.2 1.2s-1.2-.6-1.2-1.2c0-.7.6-1.2 1.2-1.2s1.2.5 1.2 1.2z" fill="#39b54a"/><path d="M56.4 20.5c0 1-.8 1.7-1.9 1.7H32.6c-1.1 0-2.2-.8-2.2-1.7v-3.4c0-1 1.1-1.7 2.2-1.7h21.9c1.1 0 1.9.8 1.9 1.7v3.4z" fill="#ff4522"/><path d="M108.5 42.6c0 1-.9 1.7-2 1.7h-74c-1.1 0-2.2-.8-2.2-1.7V26.3c0-1 1.1-1.7 2.2-1.7h74c1.1 0 2 .8 2 1.7v16.3z" fill="#47dee5"/><path class="st10" d="M54.4 56.4c0 1-.8 1.7-1.9 1.7h-20c-1.1 0-2.2-.8-2.2-1.7v-8.7c0-1 1.1-1.7 2.2-1.7h20c1.1 0 1.9.8 1.9 1.7v8.7zM80.8 56.4c0 1-.7 1.7-1.9 1.7h-20c-1.1 0-2.2-.8-2.2-1.7v-8.7c0-1 1.1-1.7 2.2-1.7h20c1.1 0 1.9.8 1.9 1.7v8.7zM108.5 56.4c0 1-.9 1.7-2 1.7h-20c-1.1 0-2.1-.8-2.1-1.7v-8.7c0-1 1-1.7 2.1-1.7h20c1.1 0 2 .8 2 1.7v8.7z"/><path class="st0" d="M80.8 61.5c0 .4-.2.7-.7.7H57.9c-.5 0-1.1-.3-1.1-.7v-.3c0-.4.7-.7 1.1-.7h22.3c.5 0 .7.3.7.7l-.1.3zM80.8 64.4c0 .4-.2.7-.7.7H57.9c-.5 0-1.1-.3-1.1-.7v-.3c0-.4.7-.6 1.1-.6h22.3c.5 0 .7.2.7.6l-.1.3zM80.8 67.3c0 .4-.2.8-.7.8H57.9c-.5 0-1.1-.4-1.1-.8V67c0-.4.7-.6 1.1-.6h22.3c.5 0 .7.2.7.6l-.1.3zM80.8 70.2c0 .4-.2.9-.7.9H57.9c-.5 0-1.1-.5-1.1-.9v-.3c0-.4.7-.8 1.1-.8h22.3c.5 0 .7.4.7.8l-.1.3zM69.9 73.1c0 .4-.3.6-.7.6H57.9c-.5 0-1.1-.2-1.1-.6v-.3c0-.4.7-.8 1.1-.8h11.3c.5 0 .7.4.7.8v.3z"/><g><path class="st0" d="M107.9 61.5c0 .4.1.7-.4.7H85.2c-.5 0-.8-.3-.8-.7v-.3c0-.4.3-.7.8-.7h22.3c.5 0 .4.3.4.7v.3zM107.9 64.4c0 .4.1.7-.4.7H85.2c-.5 0-.8-.3-.8-.7v-.3c0-.4.3-.6.8-.6h22.3c.5 0 .4.2.4.6v.3zM107.9 67.3c0 .4.1.8-.4.8H85.2c-.5 0-.8-.4-.8-.8V67c0-.4.3-.6.8-.6h22.3c.5 0 .4.2.4.6v.3zM107.9 70.2c0 .4.1.9-.4.9H85.2c-.5 0-.8-.5-.8-.9v-.3c0-.4.3-.8.8-.8h22.3c.5 0 .4.4.4.8v.3zM97 73.1c0 .4 0 .6-.4.6H85.2c-.5 0-.8-.2-.8-.6v-.3c0-.4.3-.8.8-.8h11.3c.5 0 .4.4.4.8l.1.3z"/></g><g><path class="st0" d="M54.1 61.5c0 .4-.2.7-.6.7H31.2c-.5 0-.9-.3-.9-.7v-.3c0-.4.4-.7.9-.7h22.3c.5 0 .6.3.6.7v.3zM54.1 64.4c0 .4-.2.7-.6.7H31.2c-.5 0-.9-.3-.9-.7v-.3c0-.4.4-.6.9-.6h22.3c.5 0 .6.2.6.6v.3zM54.1 67.3c0 .4-.2.8-.6.8H31.2c-.5 0-.9-.4-.9-.8V67c0-.4.4-.6.9-.6h22.3c.5 0 .6.2.6.6v.3zM54.1 70.2c0 .4-.2.9-.6.9H31.2c-.5 0-.9-.5-.9-.9v-.3c0-.4.4-.8.9-.8h22.3c.5 0 .6.4.6.8v.3zM43.2 73.1c0 .4-.2.6-.7.6H31.2c-.5 0-.9-.2-.9-.6v-.3c0-.4.4-.8.9-.8h11.3c.5 0 .7.4.7.8v.3z"/></g><g><path class="st11" d="M150.3 19.6c1.5.7 2.9 1.7 4 2.9l4.6-2.1 3.2 7.1-4.6 2.1c.1.8.1 1.7 0 2.5s-.3 1.7-.5 2.4l4.1 2.9-4.6 6.3-4.1-2.9c-1.3 1-2.9 1.7-4.5 2l-.5 5-7.8-.8.5-5c-1.5-.7-2.9-1.7-4-2.9l-4.6 2.1-3.2-7.1 4.6-2.1c-.1-.8-.1-1.6 0-2.5.1-.8.3-1.7.5-2.5l-4.1-2.9 4.5-6.4 4.1 2.9c1.3-1 2.9-1.7 4.5-2.1l.5-5 7.8.8-.4 5.3z"/><path class="st12" d="M145.6 27c2.2.2 3.7 2.1 3.5 4.3s-2.1 3.7-4.3 3.5-3.7-2.1-3.5-4.3 2.1-3.7 4.3-3.5zm.4-3.8c4.2.4 7.3 4.2 6.9 8.4-.4 4.2-4.2 7.3-8.4 6.9-4.2-.4-7.3-4.2-6.9-8.4.4-4.2 4.1-7.3 8.4-6.9z"/><g><path class="st11" d="M122 21.5c.6 1.1 1.1 2.3 1.2 3.5l3.8.7-1.1 5.8-3.7-.7c-.3.5-.7 1.1-1.1 1.5-.4.5-.9.9-1.4 1.3l1.2 3.6-5.6 1.9-1.2-3.6c-1.2 0-2.5-.2-3.7-.7l-2.5 2.9-4.5-3.9 2.5-2.9c-.6-1.1-1.1-2.3-1.2-3.5l-3.7-.7 1.1-5.8 3.8.7c.3-.5.7-1.1 1.1-1.5.4-.5.9-.9 1.4-1.3l-1.2-3.6 5.6-1.9 1.2 3.6c1.2 0 2.5.2 3.7.7l2.5-2.9 4.5 3.9-2.7 2.9z"/><path class="st12" d="M115.9 24c1.2 1.1 1.4 2.9.3 4.2-1.1 1.2-2.9 1.4-4.2.3-1.2-1.1-1.4-2.9-.3-4.2 1.1-1.2 3-1.4 4.2-.3zm1.9-2.1c2.4 2.1 2.7 5.8.6 8.2s-5.8 2.7-8.2.6c-2.4-2.1-2.7-5.8-.6-8.2 2.1-2.5 5.8-2.8 8.2-.6z"/></g></g></svg>