<svg version="1.1" id="Layer_1" xmlns="http://www.w3.org/2000/svg" x="0" y="0" width="122.3" height="103.5" viewBox="0 0 122.3 103.5" xml:space="preserve"><style>.st1{fill:#383c48}.st2{fill:#4e5464}.st3{fill:#fff}.st5{fill:#9abfe2}.st6{fill:#414654}.st7{fill:#ffc526}.st8{fill:#187a18}.st9{fill:#bdbdbd}</style><path d="M30.1 0h65.7v94.4H30.1V0z" fill="#292b37"/><path class="st1" d="M0 0h43.2v94.4H0V0z"/><path class="st2" d="M2.3 54.3h36.9v9.3H2.3v-9.3z"/><path class="st3" d="M29.1 61.4H13.7l-1.8-.9H4.4v-3.1h7.5l1.9-.9h15.3l1.8.9H37v3.1h-6.1l-1.8.9zm-15.2-.3h15.2l1.9-1h5.7v-2.3h-5.8l-1.8-.9H13.9l-1.9.9H4.8v2.4h7.3l1.8.9z"/><path class="st2" d="M2.3 66.9h36.9v9.3H2.3v-9.3z"/><path class="st3" d="M29.1 74.1H13.7l-1.8-.9H4.4v-3.1h7.5l1.9-.9h15.3l1.8.9H37v3.1h-6.1l-1.8.9zm-15.2-.4h15.2l1.9-1h5.7v-2.3h-5.8l-1.8-.9H13.9l-1.9.9H4.8v2.4h7.3l1.8.9z"/><path d="M45.8 79.6h2.7v12.5h-2.7V79.6zm5 0h2.7v12.5h-2.7V79.6zm4.9 0h2.7v12.5h-2.7V79.6zm5 0h2.7v12.5h-2.7V79.6zm5 0h2.7v12.5h-2.7V79.6zm4.9 0h2.7v12.5h-2.7V79.6z" fill="#1c1e29"/><path class="st2" d="M2.3 3.8h36.9v9.3H2.3V3.8z"/><path class="st5" d="M3.9 4.7h7.6v7.5H3.9V4.7z"/><path class="st6" d="M13.4 7.4h18.3v4.7H13.4z"/><path class="st1" d="M33.5 4.7H35v7.5h-1.5zm2.7 0h1.5v7.5h-1.5z"/><path class="st7" d="M15.8 5.6c0-.5-.4-.9-.9-.9s-.9.4-.9.9.4.9.9.9.9-.4.9-.9zm3.4 0c0-.5-.4-.9-.9-.9s-.9.4-.9.9.4.9.9.9.9-.4.9-.9zm3.3 0c0-.5-.4-.9-.9-.9s-.9.4-.9.9.4.9.9.9.9-.4.9-.9z"/><circle class="st8" cx="30.4" cy="5.6" r=".9"/><path class="st2" d="M2.3 16.4h36.9v9.3H2.3v-9.3z"/><path class="st5" d="M3.9 17.3h7.6v7.5H3.9v-7.5z"/><path class="st6" d="M13.4 20h18.3v4.7H13.4z"/><path class="st1" d="M33.5 17.3H35v7.5h-1.5zm2.7 0h1.5v7.5h-1.5z"/><path class="st7" d="M15.8 18.2c0-.5-.4-.9-.9-.9s-.9.4-.9.9.4.9.9.9.9-.4.9-.9zm3.4 0c0-.5-.4-.9-.9-.9s-.9.4-.9.9.4.9.9.9.9-.4.9-.9zm3.3 0c0-.5-.4-.9-.9-.9s-.9.4-.9.9.4.9.9.9.9-.4.9-.9z"/><circle class="st8" cx="30.4" cy="18.2" r=".9"/><path class="st2" d="M2.3 29h36.9v9.3H2.3V29z"/><path class="st5" d="M3.9 29.9h7.6v7.5H3.9v-7.5z"/><path class="st6" d="M13.4 32.6h18.3v4.7H13.4z"/><path class="st1" d="M33.5 29.9H35v7.5h-1.5zm2.7 0h1.5v7.5h-1.5z"/><path class="st7" d="M15.8 30.8c0-.5-.4-.9-.9-.9s-.9.4-.9.9.4.9.9.9.9-.4.9-.9zm3.4 0c0-.5-.4-.9-.9-.9s-.9.4-.9.9.4.9.9.9.9-.4.9-.9zm3.3 0c0-.5-.4-.9-.9-.9s-.9.4-.9.9.4.9.9.9.9-.4.9-.9z"/><circle class="st8" cx="30.4" cy="30.8" r=".9"/><path class="st2" d="M2.3 41.5h36.9v9.3H2.3v-9.3z"/><path class="st5" d="M3.9 42.4h7.6v7.5H3.9v-7.5z"/><path class="st6" d="M13.4 45.1h18.3v4.7H13.4z"/><path class="st1" d="M33.5 42.4H35v7.5h-1.5zm2.7 0h1.5v7.5h-1.5z"/><path class="st7" d="M15.8 43.3c0-.5-.4-.9-.9-.9s-.9.4-.9.9.4.9.9.9.9-.4.9-.9zm3.4 0c0-.5-.4-.9-.9-.9s-.9.4-.9.9.4.9.9.9.9-.4.9-.9zm3.3 0c0-.5-.4-.9-.9-.9s-.9.4-.9.9.4.9.9.9.9-.4.9-.9z"/><circle class="st8" cx="30.4" cy="43.3" r=".9"/><path class="st9" d="M3.7 79.5h36.9v9.3H3.7v-9.3z"/><path d="M2.3 79.5h36.9v9.3H2.3v-9.3z" fill="#ededed"/><path class="st1" d="M32.9 84.9h5.2v2.7h-5.2v-2.7z"/><path class="st9" d="M33.5 86.2h4.1v1h-4.1v-1z"/><path class="st1" d="M32.9 80.7h5.2v2.7h-5.2v-2.7z"/><path class="st9" d="M33.5 82h4.1v1h-4.1v-1z"/><path class="st1" d="M5 87.4c0 .4-.3.7-.7.7-.4 0-.7-.3-.7-.7v-6c0-.4.3-.7.7-.7s.7.3.7.7v6zm2.5 0c0 .4-.3.7-.7.7-.4 0-.7-.3-.7-.7v-6c0-.4.3-.7.7-.7.4 0 .7.3.7.7v6zm2.4 0c0 .4-.3.7-.7.7s-.7-.3-.7-.7v-6c0-.4.3-.7.7-.7s.7.3.7.7v6zm2.5 0c0 .4-.3.7-.7.7s-.7-.3-.7-.7v-6c0-.4.3-.7.7-.7s.7.3.7.7v6zm2.4 0c0 .4-.3.7-.7.7s-.7-.3-.7-.7v-6c0-.4.3-.7.7-.7s.7.3.7.7v6zm2.5 0c0 .4-.3.7-.7.7-.4 0-.7-.3-.7-.7v-6c0-.4.3-.7.7-.7s.7.3.7.7v6zm2.4 0c0 .4-.3.7-.7.7-.4 0-.7-.3-.7-.7v-6c0-.4.3-.7.7-.7.4 0 .7.3.7.7v6zm2.5 0c0 .4-.3.7-.7.7-.4 0-.7-.3-.7-.7v-6c0-.4.3-.7.7-.7.4 0 .7.3.7.7v6zm2.4 0c0 .4-.3.7-.7.7-.4 0-.7-.3-.7-.7v-6c0-.4.3-.7.7-.7.4 0 .7.3.7.7v6zm2.5 0c0 .4-.3.7-.7.7-.4 0-.7-.3-.7-.7v-6c0-.4.3-.7.7-.7.4 0 .7.3.7.7v6zm2.4 0c0 .4-.3.7-.7.7-.4 0-.7-.3-.7-.7v-6c0-.4.3-.7.7-.7.4 0 .7.3.7.7v6z"/><path d="M122.3 29.2l-4.1.1c-.9 0-5.5-.2-12.5-3.3-5.2-2.3-10.1-7.4-10.2-7.4l-2.8-2.8h-4.3c-.1.1-3.4 7.9-8.6 10.2-6.9 3.1-11.6 3.3-12.5 3.3h-.1l-4-.2v31c0 23.1 24.1 42.6 25.2 43.3h4.3l2.2-1.5c1.1-.8 27.3-18.7 27.3-41.9V33.1l.1-3.9z" fill="#e8810c"/><path d="M118 29.2l-4.1.1c-.9 0-5.5-.2-12.5-3.3-5.2-2.3-10.1-7.4-10.2-7.4l-2.8-2.8-2.8 2.8c-.1 0-5 5.1-10.2 7.4-6.9 3.1-11.6 3.3-12.5 3.3h-.1l-4-.2v31c0 23.1 26.2 41.1 27.4 41.9l2.2 1.5 2.2-1.5c1.1-.8 27.4-18.7 27.4-41.9V29.2z" fill="#f59905"/><path class="st7" d="M99.9 29.5c-5.9-2.7-11.3-8.2-11.3-8.2s-5.4 5.5-11.3 8.2c-8.8 3.9-14.4 3.6-14.4 3.6V60c0 21.4 25.7 38.7 25.7 38.7s25.7-17.3 25.7-38.7V33.1c-.1 0-5.8.3-14.4-3.6z"/></svg>