<svg version="1.1" id="Layer_1" xmlns="http://www.w3.org/2000/svg" x="0" y="0" width="123.5" height="146.1" viewBox="0 0 123.5 146.1" xml:space="preserve"><style>.st0{fill:#231f20}.st1{fill:#454547}.st2{fill:#58595b}.st3{fill:#939598}.st5{fill:#fff}.st6{fill:#00e856}.st7{fill:#f1f2f2}</style><path class="st0" d="M58.4 117.9h4.5v25.2h-4.5z"/><path class="st0" d="M9.8 138.6h101.6v4.5H9.8z"/><path class="st1" d="M118.7 32.8H5.8c-2.6 0-4.7-2.1-4.7-4.7V6.4c0-2.6 2.1-4.7 4.7-4.7h112.9c2.6 0 4.7 2.1 4.7 4.7v21.7c0 2.6-2.1 4.7-4.7 4.7zM118.2 71.9H5.3c-2.6 0-4.7-2.1-4.7-4.7V47.3c0-2.6 2.1-4.7 4.7-4.7h112.9c2.6 0 4.7 2.1 4.7 4.7v19.8c0 2.6-2.1 4.8-4.7 4.8zM117.6 111.6H0V82.3h122.4v24.5c0 2.7-2.2 4.8-4.8 4.8z"/><path class="st2" d="M9.4 31H115v9.9H9.4zM8.4 70.2H114v10.5H8.4zM7.9 110h105.6v10.5H7.9z"/><path class="st3" d="M119.9 31.1H4.6c-1.9 0-3.5-1.6-3.5-3.5V3.5C1.1 1.6 2.7 0 4.6 0H120c1.9 0 3.5 1.6 3.5 3.5v24.1c-.1 2-1.6 3.5-3.6 3.5zM119.4 70.2H4c-1.9 0-3.5-1.6-3.5-3.5V44.4c0-1.9 1.6-3.5 3.5-3.5h115.4c1.9 0 3.5 1.6 3.5 3.5v22.3c0 1.9-1.6 3.5-3.5 3.5zM118.9 110H3.5c-1.9 0-3.5-1.6-3.5-3.5V84.2c0-1.9 1.6-3.5 3.5-3.5h115.4c1.9 0 3.5 1.6 3.5 3.5v22.3c0 1.9-1.6 3.5-3.5 3.5z"/><path class="st0" d="M8.4 6.9h2v15.2h-2zM14.7 6.9h2v15.2h-2zM21 6.9h2v15.2h-2zM27.8 6.9h2v15.2h-2zM34 6.9h2v15.2h-2z"/><path fill="#e6e7e8" d="M41.3 6.9h73.2v7.8H41.3z"/><path class="st5" d="M109.2 16.9c0 4.1-3.4 7.5-7.5 7.5s-7.5-3.4-7.5-7.5 3.4-7.5 7.5-7.5 7.5 3.4 7.5 7.5z"/><path class="st0" d="M99.4 15.9h5.2v2h-5.2z"/><path class="st5" d="M24.1 55.2c0 4.1-3.4 7.5-7.5 7.5s-7.5-3.4-7.5-7.5 3.4-7.5 7.5-7.5 7.5 3.4 7.5 7.5z"/><path class="st0" d="M14.1 54h5.8v2h-5.8z"/><path class="st5" d="M48.5 55.2c0 4.1-3.4 7.5-7.5 7.5s-7.5-3.4-7.5-7.5 3.4-7.5 7.5-7.5 7.5 3.4 7.5 7.5z"/><path class="st0" d="M38.7 54h5.2v2h-5.2z"/><path class="st5" d="M71.8 55.2c0 4.1-3.4 7.5-7.5 7.5s-7.5-3.4-7.5-7.5 3.4-7.5 7.5-7.5c4.2 0 7.5 3.4 7.5 7.5z"/><path class="st0" d="M62.2 54h5.2v2h-5.2zM41.3 19h39.2v2H41.3zM83.7 19h5.2v2h-5.2z"/><path class="st6" d="M43.4 8.5h2.1v4.7h-2.1zM48.6 8.5h2.1v4.7h-2.1zM53.3 8.5h2.1v4.7h-2.1zM58.6 8.5h2.1v4.7h-2.1zM63.3 8.5h2.1v4.7h-2.1z"/><path class="st2" d="M68.5 8.5h2.1v4.7h-2.1zM73.2 8.5h2.1v4.7h-2.1zM78.4 8.5h2.1v4.7h-2.1zM83.2 8.5h2.1v4.7h-2.1zM88.9 8.5H91v4.7h-2.1z"/><path class="st7" d="M79.5 47.7h5.8v8.9h-5.8z"/><path class="st6" d="M89.4 47.7h5.8v8.9h-5.8z"/><path class="st7" d="M99.4 47.7h5.8v8.9h-5.8z"/><path class="st6" d="M109.3 47.7h5.8v8.9h-5.8z"/><path class="st0" d="M81.6 51.9h2v10.5h-2zM91.6 51.9h2v10.5h-2zM101.5 51.9h2v10.5h-2zM111.4 51.9h2v10.5h-2z"/><path class="st0" d="M79.5 50.9h5.8v2h-5.8zM89.4 50.9h5.8v2h-5.8zM99.4 50.9h5.8v2h-5.8zM109.3 50.9h5.8v2h-5.8z"/><path class="st6" d="M73.2 86.9H114v15.7H73.2z"/><path class="st5" d="M23.1 95c0 4.1-3.4 7.5-7.5 7.5S8.1 99.1 8.1 95s3.4-7.5 7.5-7.5 7.5 3.4 7.5 7.5z"/><path class="st0" d="M13.1 93.8h5.8v2h-5.8zM79 86.9h2v15.7h-2z"/><path class="st0" d="M76.9 85.9h5.8v2h-5.8zM87.4 86.9h2v15.7h-2z"/><path class="st0" d="M85.2 101.6h6.3v2h-6.3zM98.9 86.9h2v15.7h-2z"/><path class="st0" d="M96.7 85.9h6.3v2h-6.3zM107.3 86.9h2v15.7h-2z"/><path class="st0" d="M105.1 101.6h6.3v2h-6.3zM29.8 89.1H68v2H29.8zM29.8 93.8H68v2H29.8zM29.8 99H68v2H29.8z"/><circle class="st0" cx="60.6" cy="140.8" r="5.3"/></svg>