<svg version="1.1" id="Layer_1" xmlns="http://www.w3.org/2000/svg" x="0" y="0" width="194.6" height="142.9" viewBox="0 0 194.6 142.9" xml:space="preserve"><style>.st0,.st6{fill-rule:evenodd;clip-rule:evenodd;fill:#01b9ad}.st6{fill:#fefefe}</style><path class="st0" d="M30.4 0c-8 0-14.7 5.1-16.6 12C6 12.9 0 19 0 26.5c0 8.1 7 14.6 15.6 14.6h40C63 41.1 69 35.4 69 28.5c0-5.2-3.3-9.7-8.1-11.6v-.3c0-4.9-4.3-8.9-9.5-8.9-2.1 0-3.9.6-5.5 1.6C43.3 3.9 37.3 0 30.4 0z"/><g fill-rule="evenodd" clip-rule="evenodd"><path d="M98.4 127.9c35 0 63.6-28.6 63.6-63.6S133.4.7 98.4.7 34.8 29.3 34.8 64.3s28.6 63.6 63.6 63.6z" fill="#3dd4e9"/><path d="M161 75.9c-1.1 5.8-2.9 11.4-5.5 16.5h-50.7c-4.6 0-8.3-3.7-8.3-8.3 0-4.6 3.7-8.3 8.3-8.3H161v.1zm-5-38.8c3.9 8.2 6.1 17.5 6.1 27.2 0 1 0 2.1-.1 3.1-1.8.7-3.8 1.1-5.8 1.1h-42.6c-8.6 0-15.7-7.1-15.7-15.7s7.1-15.7 15.7-15.7H156zm-117 50c-2.6-6.8-4.1-14.2-4.2-22h20.5c2.5 0 4.6 2.1 4.6 4.6 0 .7-.1 1.3-.4 1.9h11.7c4.3 0 7.8 3.5 7.8 7.8s-3.5 7.8-7.8 7.8H39v-.1zm4.5-55c2.4-4.1 5.3-8 8.6-11.5h24.5c3.2 0 5.7 2.6 5.7 5.7S79.7 32 76.6 32l-33.1.1z" fill="#7dc983"/><path d="M127.7 79.6c3.7 0 6.9-2.3 8.1-5.6 1.5-1.4 2.4-3.4 2.4-5.6 0-4.2-3.4-7.6-7.6-7.6h-5.3c.9-1.6 1.4-3.4 1.4-5.3 0-5.9-4.8-10.7-10.7-10.7s-10.7 4.8-10.7 10.7v.3c-.6-.2-1.3-.3-2-.3-3.1 0-5.7 2.3-6.2 5.3h-3.9c-4.2 0-7.6 3.4-7.6 7.6 0 4.2 3.4 7.6 7.6 7.6h6.2c1.4 2.9 4.4 4.9 7.8 4.9 3.5 0 6.4-2 7.8-4.9h5.7c1.6 2.2 4.1 3.6 7 3.6zm11.6-64c3.6 3 6.9 6.4 9.7 10.2h-28.3c-.7.7-1.7 1.2-2.8 1.2-.4 0-.9-.1-1.2-.2v.2c0 3.7-3 6.8-6.8 6.8s-6.8-3-6.8-6.8c0-1.2.3-2.4.9-3.4h-3.4c-2.6 0-4.8-2.2-4.8-4.8 0-1.4.6-2.6 1.5-3.5.8-2.1 2.8-3.6 5.2-3.6 1.8 0 3.4.9 4.4 2.2h3.6c.9-1.9 2.8-3.1 5-3.1s4.1 1.3 5 3.1h3.9c1.5 0 2.8.7 3.7 1.7h11.2zM48.8 33.8c1.1 0 2.2.3 3.2.7.8-.4 1.8-.6 2.8-.7-.2-.5-.3-1.1-.3-1.6 0-3.3 3-6 6.6-6 3.7 0 6.6 2.7 6.6 6 0 1.2-.4 2.4-1.1 3.3 2.1.6 3.6 2.2 3.6 4.2 0 .8-.3 1.6-.8 2.3 3 .6 4.9 1.5 4.9 2.4 0 1.7-5.7 3.1-12.8 3.1-2.9 0-5.6-.2-7.8-.6-1.3 1.2-3.1 1.9-5 1.9-4.1 0-7.5-3.4-7.5-7.5.1-4.2 3.5-7.5 7.6-7.5z" fill="#fff"/></g><path d="M129.4 75.5h58.4c3.7 0 6.8 3.1 6.8 6.8v53.8c0 3.7-3.1 6.8-6.8 6.8h-58.4c-3.7 0-6.8-3.1-6.8-6.8V82.3c0-3.7 3.1-6.8 6.8-6.8z" fill-rule="evenodd" clip-rule="evenodd" fill="#e62c34"/><path fill-rule="evenodd" clip-rule="evenodd" fill="#08c6a2" d="M122.6 98.4h72V120h-72z"/><path class="st6" d="M155.9 132.2c0 1.1.2 1.8.7 2.4.5.5 1 .8 1.7.8s1.3-.3 1.7-.8c.5-.5.7-1.3.7-2.4 0-1-.2-1.8-.7-2.3s-1-.8-1.7-.8-1.3.3-1.7.8c-.5.5-.7 1.2-.7 2.3zm-1.4 0c0-1.5.4-2.6 1.3-3.4.7-.6 1.6-.9 2.6-.9 1.1 0 2.1.4 2.8 1.1.7.7 1.1 1.8 1.1 3.1 0 1.1-.2 1.9-.5 2.5s-.8 1.1-1.4 1.4c-.6.3-1.3.5-2 .5-1.1 0-2.1-.4-2.8-1.1-.8-.8-1.1-1.8-1.1-3.2zm-3.6 4.1v-7.2h-1.2V128h1.2v-.9c0-.6.1-1 .1-1.2.1-.4.4-.6.7-.9.3-.2.8-.3 1.4-.3.4 0 .8 0 1.3.1l-.2 1.2c-.3 0-.6-.1-.8-.1-.4 0-.7.1-.9.3s-.3.5-.3 1v.8h1.6v1.1h-1.6v7.2h-1.3zm-9.1 0v-8.2h1.3v1.2c.6-.9 1.5-1.4 2.6-1.4.5 0 .9.1 1.4.3.4.2.7.4.9.7s.4.6.4 1c.1.3.1.7.1 1.4v5.1h-1.4v-5c0-.6-.1-1-.1-1.3-.1-.3-.3-.5-.6-.7-.3-.2-.6-.3-1-.3-.6 0-1.1.2-1.5.6-.4.4-.6 1.1-.6 2.1v4.5h-1.5zm-3.6 0v-8.2h1.4v8.2h-1.4zm0-9.8v-1.6h1.4v1.6h-1.4zm-4 9.8v-1.6h1.6v1.6h-1.6zM158.9 112.7l.2 1.2c-.4.1-.7.1-1.1.1-.5 0-.9-.1-1.2-.2-.3-.2-.5-.4-.6-.6-.1-.3-.2-.8-.2-1.6v-4.7h-1v-1.1h1v-2l1.4-.9v2.9h1.4v1.1h-1.4v4.8c0 .4 0 .6.1.8.1.1.1.2.2.3.1.1.3.1.5.1.2-.1.4-.1.7-.2zm-10.8-3.6h4.6c-.1-.7-.2-1.2-.5-1.6-.4-.5-1-.8-1.7-.8-.6 0-1.2.2-1.6.6-.5.5-.8 1.1-.8 1.8zm4.6 2.2l1.4.2c-.2.8-.6 1.5-1.3 1.9-.6.5-1.4.7-2.4.7-1.2 0-2.1-.4-2.9-1.1-.7-.7-1.1-1.8-1.1-3.1 0-1.4.4-2.4 1.1-3.2.7-.8 1.6-1.1 2.8-1.1 1.1 0 2 .4 2.7 1.1.7.8 1.1 1.8 1.1 3.2v.4H148c.1.9.3 1.6.8 2.1.4.5 1 .7 1.7.7.5 0 .9-.1 1.3-.4.4-.3.7-.8.9-1.4zm-14.5 2.7v-8.2h1.3v1.2c.6-.9 1.5-1.3 2.6-1.3.5 0 .9.1 1.4.3.4.2.7.4.9.7.2.3.4.6.4 1 .1.3.1.7.1 1.4v5.1h-1.4v-5c0-.6-.1-1-.2-1.3-.1-.3-.3-.5-.6-.7-.3-.2-.6-.3-1-.3-.6 0-1.1.2-1.5.6-.4.4-.6 1.1-.6 2.1v4.5l-1.4-.1zm-4 0v-1.6h1.6v1.6h-1.6zM155 91.2V83h1.3v1.2c.2-.4.6-.7 1-1 .4-.2.9-.4 1.5-.4s1.1.1 1.5.4c.4.2.7.6.8 1.1.6-1 1.5-1.4 2.6-1.4.8 0 1.4.2 1.9.7.4.4.7 1.1.7 2.1v5.6h-1.4v-5.2c0-.6 0-.9-.1-1.2-.1-.2-.3-.4-.5-.6s-.5-.2-.8-.2c-.6 0-1.1.2-1.4.6-.4.4-.6 1-.6 1.9v4.8h-1.4v-5.3c0-.6-.1-1.1-.4-1.4-.2-.3-.6-.5-1.1-.5-.4 0-.8.1-1.1.3-.3.2-.6.5-.7.9-.1.4-.2 1-.2 1.7v4.3H155v-.2zm-7.9-4.1c0 1.1.2 1.8.7 2.4.5.5 1 .8 1.7.8s1.3-.3 1.7-.8c.5-.5.7-1.3.7-2.4 0-1-.2-1.8-.7-2.3s-1-.8-1.7-.8-1.3.3-1.7.8c-.5.4-.7 1.2-.7 2.3zm-1.5 0c0-1.5.4-2.6 1.3-3.4.7-.6 1.6-.9 2.6-.9 1.1 0 2.1.4 2.8 1.1s1.1 1.8 1.1 3.1c0 1.1-.2 1.9-.5 2.5s-.8 1.1-1.4 1.4c-.6.3-1.3.5-2 .5-1.1 0-2.1-.4-2.8-1.1-.7-.8-1.1-1.8-1.1-3.2zm-2 1.1l1.4.2c-.1.9-.5 1.7-1.1 2.2-.6.5-1.4.8-2.3.8-1.1 0-2-.4-2.7-1.1s-1-1.8-1-3.1c0-.9.1-1.7.4-2.3.3-.7.7-1.2 1.3-1.5s1.3-.5 2-.5c.9 0 1.6.2 2.2.7.6.4.9 1.1 1.1 1.9l-1.4.2c-.1-.6-.4-1-.7-1.2-.3-.3-.7-.4-1.2-.4-.7 0-1.3.3-1.7.8s-.6 1.3-.6 2.4.2 1.9.6 2.4c.4.5 1 .8 1.7.8.5 0 1-.2 1.4-.5.3-.6.5-1.1.6-1.8zm-9.4 3v-1.6h1.6v1.6h-1.6z"/><g><path class="st0" d="M101 4.5c-4 0-7.3 2.6-8.3 6-3.9.4-6.9 3.5-6.9 7.3 0 4 3.5 7.3 7.8 7.3h20c3.7 0 6.7-2.8 6.7-6.3 0-2.6-1.7-4.8-4.1-5.8v-.1c0-2.5-2.1-4.5-4.8-4.5-1 0-2 .3-2.8.8-1.1-2.8-4.1-4.7-7.6-4.7z"/></g></svg>