<svg version="1.1" id="Layer_1" xmlns="http://www.w3.org/2000/svg" x="0" y="0" width="195.1" height="124" viewBox="0 0 195.1 124" xml:space="preserve"><style>.st0{fill:#c0d7ed}.st2{enable-background:new}.st3{fill:#292b37}.st4{fill:#383c48}.st6{fill:#303240}.st7{fill:#e8810c}.st8{fill:#ffc526}.st9{fill:#f0942b}.st11{fill:#fff}</style><path class="st0" d="M165.1 41.8h-.1C161.5 18.1 141.1 0 116.4 0H99v3.2C86.4 8 76.3 17.8 71.1 30.2c-2.2-.8-4.6-1.3-7.1-1.3-11.3-.1-20.4 9-20.4 20.2 0 2 .3 3.9.8 5.8-1.3-.2-2.7-.3-4.1-.3-13-.1-23.7 10.6-23.7 23.7S27.2 102 40.3 102H165c16.6 0 30.1-13.5 30.1-30.1.1-16.6-13.4-30.1-30-30.1z"/><path d="M148.5 41.8h-.1C144.9 18.1 124.5 0 99.8 0 79.4 0 61.9 12.4 54.5 30.1c-2.2-.8-4.6-1.3-7.1-1.3-11.3 0-20.4 9.1-20.4 20.3 0 2 .3 3.9.8 5.8-1.3-.2-2.7-.3-4.1-.3C10.6 54.6 0 65.2 0 78.3S10.6 102 23.7 102h124.7c16.6 0 30.1-13.5 30.1-30.1.1-16.6-13.4-30.1-30-30.1z" fill="#eaeffc"/><g id="_x31_2_2_"><g class="st2"><path class="st3" d="M160.6 82.2v13.3c0 5-6.8 9.3-16.1 10.6-2 .3-4.2.5-6.4.5-3 0-5.9-.3-8.5-.8-8.2-1.7-13.9-5.6-13.9-10.3V82.2c0 4.6 5.7 8.6 13.9 10.3 2.6.5 5.5.8 8.5.8 2.2 0 4.4-.2 6.4-.5 9.3-1.3 16.1-5.6 16.1-10.6z"/><path class="st4" d="M138.2 71.1c-12.4 0-22.4 5-22.4 11.1s10 11.1 22.4 11.1 22.4-5 22.4-11.1c0-6.2-10.1-11.1-22.4-11.1z"/></g><g class="st2"><path class="st3" d="M160.6 64.6v13.3c0 5-6.8 9.3-16.1 10.7-2 .3-4.2.5-6.4.5-3 0-5.9-.3-8.5-.8-8.2-1.7-13.9-5.6-13.9-10.3V64.6c0 4.6 5.7 8.6 13.9 10.3 2.6.5 5.5.8 8.5.8 2.2 0 4.4-.2 6.4-.5 9.3-1.4 16.1-5.6 16.1-10.6z"/><path class="st4" d="M138.2 53.5c-12.4 0-22.4 5-22.4 11.1s10 11.1 22.4 11.1 22.4-5 22.4-11.1c0-6.2-10.1-11.1-22.4-11.1z"/><path d="M138.2 57.1c-8.4 0-15.2 3.4-15.2 7.5 0 4.2 6.8 7.5 15.2 7.5 8.4 0 15.2-3.4 15.2-7.5-.1-4.2-6.9-7.5-15.2-7.5z" fill="#4e5464"/></g><path class="st6" d="M144.5 75.2v13.3c-2 .3-4.2.5-6.4.5-3 0-5.9-.3-8.5-.8V74.8c2.6.5 5.5.8 8.5.8 2.3.1 4.4-.1 6.4-.4zM144.5 92.8v13.3c-2 .3-4.2.5-6.4.5-3 0-5.9-.3-8.5-.8V92.5c2.6.5 5.5.8 8.5.8 2.3 0 4.4-.2 6.4-.5z"/><g><g class="st2"><path class="st7" d="M80.7 82.2v13.3c0 5-6.8 9.3-16.1 10.6-2 .3-4.2.5-6.4.5-3 0-5.9-.3-8.5-.8-8.1-1.7-13.9-5.6-13.9-10.3V82.2c0 4.6 5.7 8.6 13.9 10.3 2.6.5 5.5.8 8.5.8 2.2 0 4.4-.2 6.4-.5 9.3-1.3 16.1-5.6 16.1-10.6z"/><path class="st8" d="M58.2 71.1c-12.4 0-22.4 5-22.4 11.1s10 11.1 22.4 11.1 22.4-5 22.4-11.1c.1-6.2-10-11.1-22.4-11.1z"/></g><g class="st2"><path class="st7" d="M80.7 64.6v13.3c0 5-6.8 9.3-16.1 10.7-2 .3-4.2.5-6.4.5-3 0-5.9-.3-8.5-.8-8.1-1.7-13.9-5.6-13.9-10.3V64.6c0 4.6 5.7 8.6 13.9 10.3 2.6.5 5.5.8 8.5.8 2.2 0 4.4-.2 6.4-.5 9.3-1.4 16.1-5.6 16.1-10.6z"/><path class="st8" d="M58.2 53.5c-12.4 0-22.4 5-22.4 11.1s10 11.1 22.4 11.1 22.4-5 22.4-11.1c.1-6.2-10-11.1-22.4-11.1z"/><path class="st9" d="M58.2 57.1c-8.4 0-15.2 3.4-15.2 7.5 0 4.2 6.8 7.5 15.2 7.5s15.2-3.4 15.2-7.5c0-4.2-6.8-7.5-15.2-7.5z"/></g><path class="st9" d="M64.6 75.2v13.3c-2 .3-4.2.5-6.4.5-3 0-5.9-.3-8.5-.8V74.8c2.6.5 5.5.8 8.5.8 2.2.1 4.4-.1 6.4-.4zM64.6 92.8v13.3c-2 .3-4.2.5-6.4.5-3 0-5.9-.3-8.5-.8V92.5c2.6.5 5.5.8 8.5.8 2.2 0 4.4-.2 6.4-.5z"/></g><g><g class="st2"><path class="st0" d="M120.6 99.5v13.3c0 5-6.8 9.3-16.1 10.6-2 .3-4.2.5-6.4.5-3 0-5.9-.3-8.5-.8-8.2-1.7-13.9-5.6-13.9-10.3V99.5c0 4.6 5.7 8.6 13.9 10.3 2.6.5 5.5.8 8.5.8 2.2 0 4.4-.1 6.4-.5 9.4-1.3 16.1-5.5 16.1-10.6z"/><path d="M98.2 88.4c-12.4 0-22.4 5-22.4 11.1s10 11.1 22.4 11.1 22.4-5 22.4-11.1-10-11.1-22.4-11.1z" fill="#97b0cc"/></g><g class="st2"><path class="st0" d="M120.6 81.9v13.3c0 5-6.8 9.3-16.1 10.7-2 .3-4.2.5-6.4.5-3 0-5.9-.3-8.5-.8-8.2-1.7-13.9-5.6-13.9-10.3V81.9c0 4.6 5.7 8.6 13.9 10.3 2.6.5 5.5.8 8.5.8 2.2 0 4.4-.2 6.4-.5 9.4-1.3 16.1-5.5 16.1-10.6z"/><path class="st11" d="M98.2 70.8c-12.4 0-22.4 5-22.4 11.1S85.8 93 98.2 93s22.4-5 22.4-11.1-10-11.1-22.4-11.1z"/><path class="st0" d="M98.2 74.7c-8 0-14.5 3.2-14.5 7.2s6.5 7.2 14.5 7.2 14.5-3.2 14.5-7.2c0-3.9-6.5-7.2-14.5-7.2z"/></g><path class="st11" d="M104.6 92.6v13.3c-2 .3-4.2.5-6.4.5-3 0-5.9-.3-8.5-.8V92.3c2.6.5 5.5.8 8.5.8 2.2-.1 4.3-.2 6.4-.5zM104.6 110.2v13.3c-2 .3-4.2.5-6.4.5-3 0-5.9-.3-8.5-.8v-13.3c2.6.5 5.5.8 8.5.8 2.2 0 4.3-.2 6.4-.5z"/></g></g></svg>