<svg xmlns="http://www.w3.org/2000/svg" width="151.6" height="69.4" viewBox="0 0 151.6 69.4"><path d="M148.4 0H17.1C7.7 0 0 7.7 0 17.1v35.2c0 9.4 7.7 17.1 17.1 17.1h131.3V0z" fill="#65be29"/><path d="M151.6 7.8H66.4c-7.2 0-13 5.8-13 13v26.8c0 7.2 5.8 13 13 13h85.2V7.8z" fill="#fff"/><path d="M36.5 23.7v-2.4c0-5.2-4.3-9.5-9.5-9.5s-9.5 4.3-9.5 9.5v2.4c-2.4 1-4.2 3.4-4.2 6.2v13.8c0 3.7 3 6.7 6.7 6.7h13.8c3.7 0 6.7-3 6.7-6.7V29.9c.1-2.8-1.6-5.2-4-6.2M27 15.4c3.2 0 5.8 2.6 5.8 5.8v1.9H21.2v-1.9c0-3.2 2.6-5.8 5.8-5.8"/><g><path d="M73.8 42v-6.9c0-1.7-.5-2.5-1.5-2.5-.7 0-1.2.3-1.6.9-.3.6-.5 1.6-.5 3v5.6h-4.4V24.7h4.4v2.5c0 1.1-.1 2.4-.2 3.8h.2c.4-.7.9-1.1 1.5-1.4s1.2-.4 2-.4c1.4 0 2.5.4 3.3 1.2.8.8 1.2 2 1.2 3.4V42h-4.4zM87.3 38.8c.6 0 1.3-.1 2.1-.4v3.2c-.6.3-1.1.4-1.7.5-.5.1-1.2.2-1.9.2-1.5 0-2.5-.4-3.2-1.1-.6-.7-1-1.8-1-3.3v-5.2h-1.5v-1.8l1.9-1.4 1.1-2.7H86v2.6h3.1v3.3H86v4.9c.1.8.5 1.2 1.3 1.2zM97.8 38.8c.6 0 1.3-.1 2.1-.4v3.2c-.6.3-1.1.4-1.7.5-.5.1-1.2.2-1.9.2-1.5 0-2.5-.4-3.2-1.1-.6-.7-1-1.8-1-3.3v-5.2h-1.5v-1.8l1.9-1.4 1.1-2.7h2.9v2.6h3.1v3.3h-3.1v4.9c.2.8.6 1.2 1.3 1.2zM109.8 42.3c-.6 0-1.2-.1-1.7-.3-.5-.2-1-.6-1.5-1.1h-.2c.1.9.2 1.4.2 1.7v5.1h-4.4V29.4h3.6l.6 1.6h.2c.8-1.2 1.9-1.8 3.4-1.8 1.4 0 2.5.6 3.3 1.7.8 1.2 1.2 2.8 1.2 4.8s-.4 3.6-1.2 4.8-2.1 1.8-3.5 1.8zm-1.5-9.7c-.6 0-1.1.2-1.3.7-.3.5-.4 1.1-.4 2v.3c0 1.1.1 1.9.4 2.4s.7.7 1.4.7c.6 0 1-.2 1.2-.7.3-.5.4-1.3.4-2.4s-.1-1.9-.4-2.3c-.3-.5-.7-.7-1.3-.7zM126.6 38.2c0 1.4-.5 2.4-1.4 3.1s-2.2 1-4 1c-.9 0-1.8-.1-2.4-.2-.7-.1-1.4-.3-2.1-.6V38c.7.3 1.4.5 2.2.7.8.2 1.5.3 2.2.3.9 0 1.4-.2 1.4-.6 0-.2-.1-.4-.4-.6s-1-.5-2.3-1c-1.2-.5-2-1-2.4-1.6-.5-.6-.7-1.4-.7-2.3 0-1.2.5-2.1 1.4-2.7.9-.7 2.2-1 3.9-1 .8 0 1.6.1 2.4.3.7.2 1.5.4 2.3.8l-1.2 2.8c-.6-.3-1.2-.5-1.8-.7-.6-.2-1.2-.3-1.6-.3-.7 0-1.1.2-1.1.5 0 .2.1.4.4.6.2.2 1 .5 2.2.9.9.4 1.5.7 2 1.1.4.4.8.8 1 1.2-.1.5 0 1.1 0 1.8zM128.5 31.4c0-.7.2-1.2.6-1.6.4-.4 1-.6 1.8-.6.7 0 1.3.2 1.7.6s.6.9.6 1.6-.2 1.2-.6 1.6c-.4.4-1 .6-1.7.6-.8 0-1.3-.2-1.8-.6-.4-.4-.6-1-.6-1.6zm0 8.8c0-.7.2-1.2.6-1.6.4-.4 1-.6 1.8-.6.7 0 1.3.2 1.7.6s.6.9.6 1.6-.2 1.2-.6 1.6c-.4.4-1 .6-1.7.6s-1.3-.2-1.7-.6c-.5-.4-.7-.9-.7-1.6zM138.1 25.5l6.1 16.8h-3.9l-6.1-16.8h3.9z"/></g></svg>